<mxfile host="app.diagrams.net" agent="Mozilla/5.0 (Windows NT 10.0; Win64; x64; rv:132.0) Gecko/20100101 Firefox/132.0" version="24.7.13">
  <diagram name="Seite-1" id="eOJJuq0LcNt45RvcISpC">
    <mxGraphModel dx="2420" dy="993" grid="1" gridSize="10" guides="1" tooltips="1" connect="1" arrows="1" fold="1" page="1" pageScale="1" pageWidth="827" pageHeight="1169" math="0" shadow="0">
      <root>
        <mxCell id="0" />
        <mxCell id="1" parent="0" />
        <mxCell id="UAqF-_rZYv9wuiN6UrHG-18" style="edgeStyle=orthogonalEdgeStyle;rounded=0;orthogonalLoop=1;jettySize=auto;html=1;entryX=0.367;entryY=-0.012;entryDx=0;entryDy=0;entryPerimeter=0;startArrow=classic;startFill=1;" edge="1" parent="1" source="UAqF-_rZYv9wuiN6UrHG-1" target="UAqF-_rZYv9wuiN6UrHG-12">
          <mxGeometry relative="1" as="geometry">
            <Array as="points">
              <mxPoint x="110" y="480" />
              <mxPoint x="109" y="480" />
            </Array>
          </mxGeometry>
        </mxCell>
        <mxCell id="UAqF-_rZYv9wuiN6UrHG-24" value="SDA" style="edgeLabel;html=1;align=center;verticalAlign=middle;resizable=0;points=[];rotation=-90;" vertex="1" connectable="0" parent="UAqF-_rZYv9wuiN6UrHG-18">
          <mxGeometry x="0.0996" y="1" relative="1" as="geometry">
            <mxPoint y="-21" as="offset" />
          </mxGeometry>
        </mxCell>
        <mxCell id="UAqF-_rZYv9wuiN6UrHG-22" value="" style="edgeStyle=orthogonalEdgeStyle;rounded=0;orthogonalLoop=1;jettySize=auto;html=1;entryX=0.625;entryY=-0.012;entryDx=0;entryDy=0;entryPerimeter=0;" edge="1" parent="1" target="UAqF-_rZYv9wuiN6UrHG-12">
          <mxGeometry relative="1" as="geometry">
            <mxPoint x="130" y="440" as="sourcePoint" />
            <mxPoint x="130" y="520" as="targetPoint" />
          </mxGeometry>
        </mxCell>
        <mxCell id="UAqF-_rZYv9wuiN6UrHG-25" value="SCL" style="edgeLabel;html=1;align=center;verticalAlign=middle;resizable=0;points=[];rotation=-90;" vertex="1" connectable="0" parent="UAqF-_rZYv9wuiN6UrHG-22">
          <mxGeometry x="0.089" relative="1" as="geometry">
            <mxPoint y="-21" as="offset" />
          </mxGeometry>
        </mxCell>
        <mxCell id="UAqF-_rZYv9wuiN6UrHG-1" value="ESP Audio Kit" style="whiteSpace=wrap;html=1;aspect=fixed;" vertex="1" parent="1">
          <mxGeometry x="60" y="320" width="120" height="120" as="geometry" />
        </mxCell>
        <mxCell id="UAqF-_rZYv9wuiN6UrHG-2" value="ToF" style="whiteSpace=wrap;html=1;aspect=fixed;" vertex="1" parent="1">
          <mxGeometry x="60" y="720" width="120" height="120" as="geometry" />
        </mxCell>
        <mxCell id="UAqF-_rZYv9wuiN6UrHG-17" style="edgeStyle=orthogonalEdgeStyle;rounded=0;orthogonalLoop=1;jettySize=auto;html=1;entryX=0;entryY=0.5;entryDx=0;entryDy=0;" edge="1" parent="1" source="UAqF-_rZYv9wuiN6UrHG-3" target="UAqF-_rZYv9wuiN6UrHG-1">
          <mxGeometry relative="1" as="geometry">
            <Array as="points">
              <mxPoint y="380" />
            </Array>
          </mxGeometry>
        </mxCell>
        <mxCell id="UAqF-_rZYv9wuiN6UrHG-44" value="3.3.V" style="edgeLabel;html=1;align=center;verticalAlign=middle;resizable=0;points=[];rotation=-90;" vertex="1" connectable="0" parent="UAqF-_rZYv9wuiN6UrHG-17">
          <mxGeometry x="-0.7249" relative="1" as="geometry">
            <mxPoint y="-50" as="offset" />
          </mxGeometry>
        </mxCell>
        <mxCell id="UAqF-_rZYv9wuiN6UrHG-3" value="Schaltregler" style="whiteSpace=wrap;html=1;aspect=fixed;" vertex="1" parent="1">
          <mxGeometry x="-40" y="540" width="80" height="80" as="geometry" />
        </mxCell>
        <mxCell id="UAqF-_rZYv9wuiN6UrHG-16" style="edgeStyle=orthogonalEdgeStyle;rounded=0;orthogonalLoop=1;jettySize=auto;html=1;entryX=0;entryY=0.5;entryDx=0;entryDy=0;" edge="1" parent="1" source="UAqF-_rZYv9wuiN6UrHG-4" target="UAqF-_rZYv9wuiN6UrHG-3">
          <mxGeometry relative="1" as="geometry" />
        </mxCell>
        <mxCell id="UAqF-_rZYv9wuiN6UrHG-43" value="16V" style="edgeLabel;html=1;align=center;verticalAlign=middle;resizable=0;points=[];" vertex="1" connectable="0" parent="UAqF-_rZYv9wuiN6UrHG-16">
          <mxGeometry x="0.024" relative="1" as="geometry">
            <mxPoint x="-6" as="offset" />
          </mxGeometry>
        </mxCell>
        <mxCell id="UAqF-_rZYv9wuiN6UrHG-4" value="Schalter" style="whiteSpace=wrap;html=1;aspect=fixed;" vertex="1" parent="1">
          <mxGeometry x="-160" y="540" width="80" height="80" as="geometry" />
        </mxCell>
        <mxCell id="UAqF-_rZYv9wuiN6UrHG-5" value="Batterie" style="whiteSpace=wrap;html=1;aspect=fixed;" vertex="1" parent="1">
          <mxGeometry x="-360" y="540" width="80" height="80" as="geometry" />
        </mxCell>
        <mxCell id="UAqF-_rZYv9wuiN6UrHG-9" value="" style="endArrow=none;html=1;rounded=0;" edge="1" parent="1">
          <mxGeometry width="50" height="50" relative="1" as="geometry">
            <mxPoint x="200" y="480" as="sourcePoint" />
            <mxPoint x="200" y="480" as="targetPoint" />
            <Array as="points">
              <mxPoint x="200" y="680" />
              <mxPoint x="-200" y="680" />
              <mxPoint x="-200" y="480" />
            </Array>
          </mxGeometry>
        </mxCell>
        <mxCell id="UAqF-_rZYv9wuiN6UrHG-14" value="Proto Board" style="edgeLabel;html=1;align=center;verticalAlign=middle;resizable=0;points=[];" vertex="1" connectable="0" parent="UAqF-_rZYv9wuiN6UrHG-9">
          <mxGeometry x="-0.2817" y="1" relative="1" as="geometry">
            <mxPoint x="31" y="-1" as="offset" />
          </mxGeometry>
        </mxCell>
        <mxCell id="UAqF-_rZYv9wuiN6UrHG-33" value="" style="edgeStyle=orthogonalEdgeStyle;rounded=0;orthogonalLoop=1;jettySize=auto;html=1;entryX=0.25;entryY=-0.004;entryDx=0;entryDy=0;entryPerimeter=0;" edge="1" parent="1" source="UAqF-_rZYv9wuiN6UrHG-11" target="UAqF-_rZYv9wuiN6UrHG-2">
          <mxGeometry x="0.509" y="10" relative="1" as="geometry">
            <Array as="points">
              <mxPoint x="90" y="660" />
              <mxPoint x="90" y="660" />
            </Array>
            <mxPoint as="offset" />
          </mxGeometry>
        </mxCell>
        <mxCell id="UAqF-_rZYv9wuiN6UrHG-41" value="3.3V" style="edgeLabel;html=1;align=center;verticalAlign=middle;resizable=0;points=[];rotation=-90;" vertex="1" connectable="0" parent="UAqF-_rZYv9wuiN6UrHG-33">
          <mxGeometry x="-0.3769" y="-1" relative="1" as="geometry">
            <mxPoint as="offset" />
          </mxGeometry>
        </mxCell>
        <mxCell id="UAqF-_rZYv9wuiN6UrHG-35" style="edgeStyle=orthogonalEdgeStyle;rounded=0;orthogonalLoop=1;jettySize=auto;html=1;entryX=0.75;entryY=-0.004;entryDx=0;entryDy=0;entryPerimeter=0;exitX=0.877;exitY=1.002;exitDx=0;exitDy=0;exitPerimeter=0;" edge="1" parent="1" source="UAqF-_rZYv9wuiN6UrHG-11" target="UAqF-_rZYv9wuiN6UrHG-2">
          <mxGeometry relative="1" as="geometry">
            <mxPoint x="150" y="650" as="sourcePoint" />
            <mxPoint x="150" y="710" as="targetPoint" />
            <Array as="points">
              <mxPoint x="150" y="670" />
              <mxPoint x="150" y="670" />
            </Array>
          </mxGeometry>
        </mxCell>
        <mxCell id="UAqF-_rZYv9wuiN6UrHG-39" value="GND" style="edgeLabel;html=1;align=center;verticalAlign=middle;resizable=0;points=[];rotation=-90;" vertex="1" connectable="0" parent="UAqF-_rZYv9wuiN6UrHG-35">
          <mxGeometry x="-0.1294" y="1" relative="1" as="geometry">
            <mxPoint x="-1" y="-10" as="offset" />
          </mxGeometry>
        </mxCell>
        <mxCell id="UAqF-_rZYv9wuiN6UrHG-11" value="Pins von ToF" style="rounded=0;whiteSpace=wrap;html=1;" vertex="1" parent="1">
          <mxGeometry x="80" y="600" width="80" height="40" as="geometry" />
        </mxCell>
        <mxCell id="UAqF-_rZYv9wuiN6UrHG-12" value="Pins von ESP" style="rounded=0;whiteSpace=wrap;html=1;" vertex="1" parent="1">
          <mxGeometry x="80" y="520" width="80" height="40" as="geometry" />
        </mxCell>
        <mxCell id="UAqF-_rZYv9wuiN6UrHG-15" style="edgeStyle=orthogonalEdgeStyle;rounded=0;orthogonalLoop=1;jettySize=auto;html=1;" edge="1" parent="1" source="UAqF-_rZYv9wuiN6UrHG-5">
          <mxGeometry relative="1" as="geometry">
            <mxPoint x="-160" y="580" as="targetPoint" />
            <Array as="points">
              <mxPoint x="-160" y="580" />
            </Array>
          </mxGeometry>
        </mxCell>
        <mxCell id="UAqF-_rZYv9wuiN6UrHG-42" value="16V" style="edgeLabel;html=1;align=center;verticalAlign=middle;resizable=0;points=[];" vertex="1" connectable="0" parent="UAqF-_rZYv9wuiN6UrHG-15">
          <mxGeometry x="-0.2346" y="-2" relative="1" as="geometry">
            <mxPoint y="-2" as="offset" />
          </mxGeometry>
        </mxCell>
        <mxCell id="UAqF-_rZYv9wuiN6UrHG-19" style="edgeStyle=orthogonalEdgeStyle;rounded=0;orthogonalLoop=1;jettySize=auto;html=1;entryX=0.118;entryY=-0.013;entryDx=0;entryDy=0;entryPerimeter=0;" edge="1" parent="1" source="UAqF-_rZYv9wuiN6UrHG-1" target="UAqF-_rZYv9wuiN6UrHG-12">
          <mxGeometry relative="1" as="geometry">
            <Array as="points">
              <mxPoint x="90" y="480" />
              <mxPoint x="89" y="480" />
            </Array>
          </mxGeometry>
        </mxCell>
        <mxCell id="UAqF-_rZYv9wuiN6UrHG-23" value="3.3V" style="edgeLabel;html=1;align=center;verticalAlign=middle;resizable=0;points=[];rotation=-90;" vertex="1" connectable="0" parent="UAqF-_rZYv9wuiN6UrHG-19">
          <mxGeometry x="0.1097" relative="1" as="geometry">
            <mxPoint y="-22" as="offset" />
          </mxGeometry>
        </mxCell>
        <mxCell id="UAqF-_rZYv9wuiN6UrHG-21" style="edgeStyle=orthogonalEdgeStyle;rounded=0;orthogonalLoop=1;jettySize=auto;html=1;entryX=0.872;entryY=-0.012;entryDx=0;entryDy=0;entryPerimeter=0;" edge="1" parent="1" source="UAqF-_rZYv9wuiN6UrHG-1" target="UAqF-_rZYv9wuiN6UrHG-12">
          <mxGeometry relative="1" as="geometry">
            <Array as="points">
              <mxPoint x="150" y="480" />
            </Array>
          </mxGeometry>
        </mxCell>
        <mxCell id="UAqF-_rZYv9wuiN6UrHG-26" value="GND" style="edgeLabel;html=1;align=center;verticalAlign=middle;resizable=0;points=[];rotation=-90;" vertex="1" connectable="0" parent="UAqF-_rZYv9wuiN6UrHG-21">
          <mxGeometry x="0.1313" relative="1" as="geometry">
            <mxPoint y="-23" as="offset" />
          </mxGeometry>
        </mxCell>
        <mxCell id="UAqF-_rZYv9wuiN6UrHG-29" style="edgeStyle=orthogonalEdgeStyle;rounded=0;orthogonalLoop=1;jettySize=auto;html=1;entryX=0.371;entryY=-0.013;entryDx=0;entryDy=0;entryPerimeter=0;startArrow=classic;startFill=1;" edge="1" parent="1" source="UAqF-_rZYv9wuiN6UrHG-12" target="UAqF-_rZYv9wuiN6UrHG-11">
          <mxGeometry relative="1" as="geometry">
            <Array as="points">
              <mxPoint x="110" y="580" />
              <mxPoint x="110" y="580" />
            </Array>
          </mxGeometry>
        </mxCell>
        <mxCell id="UAqF-_rZYv9wuiN6UrHG-30" style="edgeStyle=orthogonalEdgeStyle;rounded=0;orthogonalLoop=1;jettySize=auto;html=1;entryX=0.124;entryY=-0.013;entryDx=0;entryDy=0;entryPerimeter=0;" edge="1" parent="1" source="UAqF-_rZYv9wuiN6UrHG-12" target="UAqF-_rZYv9wuiN6UrHG-11">
          <mxGeometry relative="1" as="geometry">
            <Array as="points">
              <mxPoint x="90" y="580" />
              <mxPoint x="90" y="580" />
            </Array>
          </mxGeometry>
        </mxCell>
        <mxCell id="UAqF-_rZYv9wuiN6UrHG-31" style="edgeStyle=orthogonalEdgeStyle;rounded=0;orthogonalLoop=1;jettySize=auto;html=1;entryX=0.878;entryY=-0.013;entryDx=0;entryDy=0;entryPerimeter=0;" edge="1" parent="1" source="UAqF-_rZYv9wuiN6UrHG-12" target="UAqF-_rZYv9wuiN6UrHG-11">
          <mxGeometry relative="1" as="geometry">
            <Array as="points">
              <mxPoint x="150" y="580" />
              <mxPoint x="150" y="580" />
            </Array>
          </mxGeometry>
        </mxCell>
        <mxCell id="UAqF-_rZYv9wuiN6UrHG-32" style="edgeStyle=orthogonalEdgeStyle;rounded=0;orthogonalLoop=1;jettySize=auto;html=1;entryX=0.622;entryY=-0.011;entryDx=0;entryDy=0;entryPerimeter=0;" edge="1" parent="1" source="UAqF-_rZYv9wuiN6UrHG-12" target="UAqF-_rZYv9wuiN6UrHG-11">
          <mxGeometry relative="1" as="geometry">
            <Array as="points">
              <mxPoint x="130" y="580" />
              <mxPoint x="130" y="580" />
            </Array>
          </mxGeometry>
        </mxCell>
        <mxCell id="UAqF-_rZYv9wuiN6UrHG-34" style="edgeStyle=orthogonalEdgeStyle;rounded=0;orthogonalLoop=1;jettySize=auto;html=1;entryX=0.416;entryY=-0.004;entryDx=0;entryDy=0;entryPerimeter=0;startArrow=classic;startFill=1;" edge="1" parent="1" source="UAqF-_rZYv9wuiN6UrHG-11" target="UAqF-_rZYv9wuiN6UrHG-2">
          <mxGeometry relative="1" as="geometry">
            <Array as="points">
              <mxPoint x="110" y="660" />
              <mxPoint x="110" y="660" />
            </Array>
          </mxGeometry>
        </mxCell>
        <mxCell id="UAqF-_rZYv9wuiN6UrHG-40" value="SDA" style="edgeLabel;html=1;align=center;verticalAlign=middle;resizable=0;points=[];rotation=-90;" vertex="1" connectable="0" parent="UAqF-_rZYv9wuiN6UrHG-34">
          <mxGeometry x="-0.3444" y="-1" relative="1" as="geometry">
            <mxPoint y="-1" as="offset" />
          </mxGeometry>
        </mxCell>
        <mxCell id="UAqF-_rZYv9wuiN6UrHG-36" style="edgeStyle=orthogonalEdgeStyle;rounded=0;orthogonalLoop=1;jettySize=auto;html=1;entryX=0.582;entryY=-0.004;entryDx=0;entryDy=0;entryPerimeter=0;" edge="1" parent="1" source="UAqF-_rZYv9wuiN6UrHG-11" target="UAqF-_rZYv9wuiN6UrHG-2">
          <mxGeometry relative="1" as="geometry">
            <Array as="points">
              <mxPoint x="130" y="680" />
              <mxPoint x="130" y="680" />
            </Array>
          </mxGeometry>
        </mxCell>
        <mxCell id="UAqF-_rZYv9wuiN6UrHG-38" value="SCL" style="edgeLabel;html=1;align=center;verticalAlign=middle;resizable=0;points=[];rotation=-90;" vertex="1" connectable="0" parent="UAqF-_rZYv9wuiN6UrHG-36">
          <mxGeometry x="-0.0441" relative="1" as="geometry">
            <mxPoint x="-1" y="-13" as="offset" />
          </mxGeometry>
        </mxCell>
      </root>
    </mxGraphModel>
  </diagram>
</mxfile>
